<?xml version="1.0" encoding="utf-8"?>
<!-- Generator: Adobe Illustrator 19.2.1, SVG Export Plug-In . SVG Version: 6.00 Build 0)  -->
<svg version="1.1" id="Layer_1" xmlns="http://www.w3.org/2000/svg" xmlns:xlink="http://www.w3.org/1999/xlink" x="0px" y="0px"
	 viewBox="0 0 800 800" style="enable-background:new 0 0 800 800;" xml:space="preserve">
<style type="text/css">
	.st0{fill:#CC972E;}
	.st1{fill:#0088F7;}
</style>
<g id="Layer_2">
	<g>
		<g>
			<polygon class="st0" points="451,339.5 451,359 467.8,349.1 			"/>
			<polygon class="st0" points="349,359 349,339.5 332.2,349.1 			"/>
			<polygon class="st0" points="417.2,300.5 434,310.3 434,290.9 			"/>
			<polygon class="st0" points="382.8,397.9 366,388.1 366,407.5 			"/>
			<polygon class="st0" points="366,310.3 382.8,300.5 366,290.9 			"/>
			<polygon class="st0" points="434,388.1 417.2,397.9 434,407.5 			"/>
			<g>
				<polygon class="st1" points="299.3,407.5 299.3,407.5 299.3,407.5 				"/>
				<polygon class="st1" points="317.3,299.5 332,290.8 332,308.3 349,318 349,261.5 300.3,289.8 				"/>
				<polygon class="st1" points="331.3,311.3 316,320 316,302.5 299,292.8 299,349.1 348,321 				"/>
				<polygon class="st1" points="316,395.9 316,378.4 331.2,387 347.9,377.4 299,349.1 299,405.5 				"/>
				<polygon class="st1" points="469.2,387 484,378.4 484,395.9 501,405.5 501,349.1 452.3,377.4 				"/>
				<polygon class="st1" points="484,320 469.1,311.3 452.2,321 501,349.1 501,292.8 484,302.5 				"/>
				<polygon class="st1" points="501.4,407.5 501.4,407.5 501.4,407.5 				"/>
				<polygon class="st1" points="299.3,407.6 299.4,407.6 299.3,407.5 				"/>
				<polygon class="st1" points="349,380.3 332,390 332,407.6 317.2,398.9 300.2,408.5 349,436.9 349,436.6 397,464.9 397,445.5 
					381.8,436.6 397,428 397,408.5 349,436.6 				"/>
				<polygon class="st1" points="499.9,408.5 483.2,398.9 468,407.6 468,390 451,380.3 451,436.6 403,408.5 403,428 418.2,436.6 
					403,445.5 403,464.9 451,436.6 451,436.9 				"/>
				<polygon class="st1" points="501.3,407.6 501.4,407.6 501.4,407.5 				"/>
				<polygon class="st1" points="451,318 468,308.3 468,290.8 483,299.5 499.9,289.8 451,261.5 				"/>
				<polygon class="st1" points="403,233.4 403,252.9 418.2,261.5 403,270.4 403,289.8 451.9,261.5 				"/>
				<polygon class="st1" points="397,270.4 381.8,261.5 397,252.9 397,233.4 348.1,261.5 397,289.8 				"/>
			</g>
			<g>
				<polygon class="st1" points="397,291.8 383,300.5 383,320 366.4,310.3 350.6,319 397,346.3 				"/>
				<polygon class="st1" points="403,291.8 403,346.3 449.6,319 434.2,310.3 417,320 417,300.5 				"/>
				<polygon class="st1" points="349,321.9 349,339.5 365.8,349.1 349,359 349,376.4 396.2,349.1 				"/>
				<polygon class="st1" points="451,321.9 403.8,349.1 451,376.4 451,359 434.2,349.1 451,339.5 				"/>
				<polygon class="st1" points="403,406.5 417,397.9 417,378.4 433.9,388.1 449.7,379.4 403,352 				"/>
				<polygon class="st1" points="397,406.5 397,352 350.6,379.4 366,388.1 383,378.4 383,397.9 				"/>
			</g>
		</g>
		<g>
			<path class="st1" d="M217.3,514.5c0,7.6-11.6,7.6-11.6,0S217.3,507,217.3,514.5z M206.6,525.5v39.8h9.8v-39.8H206.6z"/>
			<path class="st1" d="M256.9,536c-2.8-2.7-6-3.5-9.8-3.5c-4.7,0-7.2,1.4-7.2,3.9c0,2.6,2.3,4,7.4,4.3c7.5,0.5,17,2.2,17,12.7
				c0,7-5.7,13-17.1,13c-6.3,0-12.6-1-18.3-7.1l4.8-7c2.8,3.1,9.3,5.5,13.7,5.6c3.7,0.1,7.2-1.9,7.2-4.7c0-2.7-2.3-3.9-7.9-4.2
				c-7.5-0.6-16.4-3.3-16.4-12.3c0-9.2,9.5-12.4,16.7-12.4c6.2,0,10.9,1.2,15.4,5.2L256.9,536z"/>
			<path class="st1" d="M285.9,514.5c0,7.6-11.6,7.6-11.6,0C274.3,507,285.9,507,285.9,514.5z M275.2,525.5v39.8h9.8v-39.8H275.2z"
				/>
			<path class="st1" d="M336.6,545.8c0,11.4-7.8,20.7-20.7,20.7s-20.6-9.3-20.6-20.7c0-11.3,7.9-20.7,20.5-20.7
				S336.6,534.3,336.6,545.8z M305.1,545.8c0,6,3.6,11.7,10.8,11.7s10.8-5.6,10.8-11.7c0-6-4.2-11.7-10.8-11.7
				C308.8,534,305.1,539.8,305.1,545.8z"/>
			<path class="st1" d="M375.6,565.5v-20.8c0-6-3.3-10.6-9.6-10.6c-6,0-10.1,5.1-10.1,11.1v20.3h-9.7v-39.7h8.8l0.6,5.4
				c4-3.9,8-6,13-6c9.3,0,16.8,7,16.8,19.5v20.8H375.6z"/>
			<path class="st0" d="M432.2,560.3c-4.6,4.5-9.4,6.3-15.3,6.3c-11.5,0-21.1-6.9-21.1-21s9.6-21,21.1-21c5.6,0,10,1.6,14.3,5.9
				L425,537c-2.3-2.1-5.2-3.1-8-3.1c-6.6,0-11.4,4.8-11.4,11.7c0,7.6,5.1,11.6,11.3,11.6c3.1,0,6.3-0.9,8.7-3.3L432.2,560.3z"/>
			<path class="st1" d="M479,546c0,11.4-7.8,20.7-20.7,20.7s-20.6-9.3-20.6-20.7c0-11.3,7.9-20.7,20.5-20.7
				C470.9,525.3,479,534.7,479,546z M447.6,546c0,6,3.6,11.7,10.8,11.7s10.8-5.6,10.8-11.7c0-6-4.2-11.7-10.8-11.7
				C451.3,534.3,447.6,540,447.6,546z"/>
			<path class="st1" d="M497.3,525.8l0.7,4.6c3.1-4.9,7.2-5.6,11.2-5.6c4.1,0,8,1.6,10.2,3.8L515,537c-2-1.7-3.9-2.6-7.1-2.6
				c-5.1,0-9.9,2.7-9.9,10.1v20.9h-9.8v-39.7H497.3z"/>
			<path class="st1" d="M541.9,510.3v15.4h10.9v8.4h-11v17.1c0,3.8,2.1,5.6,5.1,5.6c1.5,0,3.3-0.5,4.7-1.2l2.7,8.4
				c-2.8,1.1-5.1,1.6-8.1,1.7c-8.6,0.3-14.2-4.6-14.2-14.5v-17.1h-7.4v-8.4h7.4v-10.2L541.9,510.3z"/>
			<path class="st1" d="M570.9,549.2c0.6,4.9,4.9,8.4,11.8,8.4c3.6,0,8.4-1.4,10.6-3.7l6.3,6.2c-4.2,4.3-11,6.4-17.1,6.4
				c-13.7,0-21.8-8.4-21.8-21.2c0-12.1,8.2-20.8,21.1-20.8c13.3,0,21.6,8.2,20,24.5h-30.9V549.2z M592.5,541
				c-0.6-5.1-4.7-7.7-10.3-7.7c-5.3,0-9.7,2.6-11.1,7.7H592.5z"/>
			<path class="st1" d="M634.4,525.8h11.7v0.3l-13,19.2l13.8,19.9v0.2h-11.7l-8.6-13.3l-8.6,13.3h-11.7v-0.2l13.8-19.9l-13-19.2
				v-0.3h11.7l7.8,13.4L634.4,525.8z"/>
			<path class="st0" d="M197.5,525.3L176,565.7h-0.5L153,525.3h12.3l10.8,19.2l9.8-19.2H197.5z"/>
		</g>
	</g>
</g>
</svg>
